<svg width="231" height="48" viewBox="0 0 231 48" fill="none" xmlns="http://www.w3.org/2000/svg">
<rect width="231" height="48" rx="8" fill="#3346F4"/>
<path d="M20.1942 27.624H24.2262V30H17.1162V17.364H20.1942V27.624Z" fill="white"/>
<path d="M30.2663 30.144C29.2823 30.144 28.3943 29.934 27.6023 29.514C26.8223 29.094 26.2043 28.494 25.7483 27.714C25.3043 26.934 25.0823 26.022 25.0823 24.978C25.0823 23.946 25.3103 23.04 25.7663 22.26C26.2223 21.468 26.8463 20.862 27.6383 20.442C28.4303 20.022 29.3183 19.812 30.3023 19.812C31.2863 19.812 32.1743 20.022 32.9663 20.442C33.7583 20.862 34.3823 21.468 34.8383 22.26C35.2943 23.04 35.5223 23.946 35.5223 24.978C35.5223 26.01 35.2883 26.922 34.8203 27.714C34.3643 28.494 33.7343 29.094 32.9303 29.514C32.1383 29.934 31.2503 30.144 30.2663 30.144ZM30.2663 27.48C30.8543 27.48 31.3523 27.264 31.7603 26.832C32.1803 26.4 32.3903 25.782 32.3903 24.978C32.3903 24.174 32.1863 23.556 31.7783 23.124C31.3823 22.692 30.8903 22.476 30.3023 22.476C29.7023 22.476 29.2043 22.692 28.8083 23.124C28.4123 23.544 28.2143 24.162 28.2143 24.978C28.2143 25.782 28.4063 26.4 28.7903 26.832C29.1863 27.264 29.6783 27.48 30.2663 27.48Z" fill="white"/>
<path d="M40.9713 19.812C41.6793 19.812 42.2973 19.956 42.8253 20.244C43.3653 20.532 43.7793 20.91 44.0673 21.378V19.956H47.1453V29.982C47.1453 30.906 46.9593 31.74 46.5873 32.484C46.2273 33.24 45.6693 33.84 44.9133 34.284C44.1693 34.728 43.2393 34.95 42.1233 34.95C40.6353 34.95 39.4293 34.596 38.5053 33.888C37.5813 33.192 37.0533 32.244 36.9213 31.044H39.9633C40.0593 31.428 40.2873 31.728 40.6473 31.944C41.0073 32.172 41.4513 32.286 41.9793 32.286C42.6153 32.286 43.1193 32.1 43.4913 31.728C43.8753 31.368 44.0673 30.786 44.0673 29.982V28.56C43.7673 29.028 43.3533 29.412 42.8253 29.712C42.2973 30 41.6793 30.144 40.9713 30.144C40.1433 30.144 39.3933 29.934 38.7213 29.514C38.0493 29.082 37.5153 28.476 37.1193 27.696C36.7353 26.904 36.5433 25.992 36.5433 24.96C36.5433 23.928 36.7353 23.022 37.1193 22.242C37.5153 21.462 38.0493 20.862 38.7213 20.442C39.3933 20.022 40.1433 19.812 40.9713 19.812ZM44.0673 24.978C44.0673 24.21 43.8513 23.604 43.4193 23.16C42.9993 22.716 42.4833 22.494 41.8713 22.494C41.2593 22.494 40.7373 22.716 40.3053 23.16C39.8853 23.592 39.6753 24.192 39.6753 24.96C39.6753 25.728 39.8853 26.34 40.3053 26.796C40.7373 27.24 41.2593 27.462 41.8713 27.462C42.4833 27.462 42.9993 27.24 43.4193 26.796C43.8513 26.352 44.0673 25.746 44.0673 24.978Z" fill="white"/>
<path d="M54.7345 18.912C54.1945 18.912 53.7505 18.756 53.4025 18.444C53.0665 18.12 52.8985 17.724 52.8985 17.256C52.8985 16.776 53.0665 16.38 53.4025 16.068C53.7505 15.744 54.1945 15.582 54.7345 15.582C55.2625 15.582 55.6945 15.744 56.0305 16.068C56.3785 16.38 56.5525 16.776 56.5525 17.256C56.5525 17.724 56.3785 18.12 56.0305 18.444C55.6945 18.756 55.2625 18.912 54.7345 18.912ZM56.2645 19.956V30H53.1865V19.956H56.2645Z" fill="white"/>
<path d="M64.6151 19.848C65.7911 19.848 66.7271 20.232 67.4231 21C68.1311 21.756 68.4851 22.8 68.4851 24.132V30H65.4251V24.546C65.4251 23.874 65.2511 23.352 64.9031 22.98C64.5551 22.608 64.0871 22.422 63.4991 22.422C62.9111 22.422 62.4431 22.608 62.0951 22.98C61.7471 23.352 61.5731 23.874 61.5731 24.546V30H58.4951V19.956H61.5731V21.288C61.8851 20.844 62.3051 20.496 62.8331 20.244C63.3611 19.98 63.9551 19.848 64.6151 19.848Z" fill="white"/>
<path d="M88.8565 19.956L86.1385 30H82.7365L81.1525 23.484L79.5145 30H76.1305L73.3945 19.956H76.4725L77.8945 27.138L79.5865 19.956H82.8445L84.5545 27.102L85.9585 19.956H88.8565Z" fill="white"/>
<path d="M91.5783 18.912C91.0383 18.912 90.5943 18.756 90.2463 18.444C89.9103 18.12 89.7423 17.724 89.7423 17.256C89.7423 16.776 89.9103 16.38 90.2463 16.068C90.5943 15.744 91.0383 15.582 91.5783 15.582C92.1063 15.582 92.5383 15.744 92.8743 16.068C93.2223 16.38 93.3963 16.776 93.3963 17.256C93.3963 17.724 93.2223 18.12 92.8743 18.444C92.5383 18.756 92.1063 18.912 91.5783 18.912ZM93.1083 19.956V30H90.0303V19.956H93.1083Z" fill="white"/>
<path d="M100.937 27.39V30H99.3709C98.2549 30 97.3849 29.73 96.7609 29.19C96.1369 28.638 95.8249 27.744 95.8249 26.508V22.512H94.6009V19.956H95.8249V17.508H98.9029V19.956H100.919V22.512H98.9029V26.544C98.9029 26.844 98.9749 27.06 99.1189 27.192C99.2629 27.324 99.5029 27.39 99.8389 27.39H100.937Z" fill="white"/>
<path d="M108.825 19.848C109.977 19.848 110.901 20.232 111.597 21C112.293 21.756 112.641 22.8 112.641 24.132V30H109.581V24.546C109.581 23.874 109.407 23.352 109.059 22.98C108.711 22.608 108.243 22.422 107.655 22.422C107.067 22.422 106.599 22.608 106.251 22.98C105.903 23.352 105.729 23.874 105.729 24.546V30H102.651V16.68H105.729V21.306C106.041 20.862 106.467 20.508 107.007 20.244C107.547 19.98 108.153 19.848 108.825 19.848Z" fill="white"/>
<g clip-path="url(#clip0)">
<path d="M173.1 18.5098C171.566 18.5098 170.303 19.0515 169.469 20.2013V19.5247C169.469 19.0286 169.175 18.7349 168.679 18.7349H166.086V34.1598H169.469V28.7698C170.348 29.7847 171.566 30.235 173.1 30.235C176.032 30.235 178.4 27.8452 178.4 24.3719C178.4 20.8985 176.032 18.5098 173.1 18.5098V18.5098ZM172.197 27.2588C170.596 27.2588 169.356 26.0634 169.356 24.3719C169.356 22.6803 170.596 21.4849 172.197 21.4849C173.776 21.4849 174.971 22.6803 174.971 24.3719C174.971 26.0645 173.777 27.2588 172.197 27.2588ZM159.145 18.5098C157.611 18.5098 156.348 19.0515 155.514 20.2013V19.5247C155.514 19.0286 155.22 18.7349 154.724 18.7349H152.131V34.1598H155.514V28.7698C156.393 29.7847 157.611 30.235 159.145 30.235C162.076 30.235 164.445 27.8452 164.445 24.3719C164.445 20.8985 162.076 18.5098 159.145 18.5098V18.5098ZM158.243 27.2588C156.642 27.2588 155.402 26.0634 155.402 24.3719C155.402 22.6803 156.642 21.4849 158.243 21.4849C159.821 21.4849 161.017 22.6803 161.017 24.3719C161.017 26.0645 159.821 27.2588 158.243 27.2588ZM189.562 18.7349C189.065 18.7349 188.772 19.0286 188.772 19.5247V20.2013C187.939 19.0515 186.676 18.5098 185.142 18.5098C182.21 18.5098 179.842 20.8996 179.842 24.3729C179.842 27.8462 182.21 30.2361 185.142 30.2361C186.676 30.2361 187.939 29.6944 188.773 28.5446V30.0099H192.156V18.7349H189.562ZM186.044 27.2588C184.465 27.2588 183.27 26.0634 183.27 24.3719C183.27 22.6803 184.465 21.4849 186.044 21.4849C187.645 21.4849 188.885 22.6803 188.885 24.3719C188.885 26.0645 187.645 27.2588 186.044 27.2588ZM199.011 30.2361C196.462 30.2361 194.659 29.3789 193.869 28.6577L195.561 26.1776C196.62 27.0794 197.929 27.5308 199.011 27.5308C199.936 27.5308 200.341 27.2599 200.341 26.7639C200.341 26.381 200.026 26.0873 199.034 25.8621L197.027 25.3889C195.065 24.9375 194.14 23.7431 194.14 22.0962C194.14 19.8401 195.944 18.5098 198.627 18.5098C200.702 18.5098 202.37 19.1407 203.183 19.863L201.491 22.3431C200.747 21.6665 199.665 21.1705 198.627 21.1705C197.77 21.1705 197.387 21.4642 197.387 21.9145C197.387 22.3649 197.793 22.614 198.56 22.7935L200.567 23.2449C202.618 23.6963 203.611 24.8004 203.611 26.4245C203.611 28.748 201.874 30.2361 199.011 30.2361V30.2361ZM209.7 30.2361C207.151 30.2361 205.347 29.3789 204.558 28.6577L206.249 26.1776C207.309 27.0794 208.617 27.5308 209.7 27.5308C210.624 27.5308 211.03 27.2599 211.03 26.7639C211.03 26.381 210.715 26.0873 209.723 25.8621L207.716 25.3889C205.753 24.9375 204.829 23.7431 204.829 22.0962C204.83 19.8401 206.633 18.5098 209.317 18.5098C211.391 18.5098 213.06 19.1407 213.872 19.863L212.181 22.3431C211.437 21.6665 210.355 21.1705 209.317 21.1705C208.46 21.1705 208.077 21.4642 208.077 21.9145C208.077 22.3649 208.482 22.614 209.249 22.7935L211.256 23.2449C213.308 23.6963 214.301 24.8004 214.301 26.4245C214.3 28.748 212.564 30.2361 209.7 30.2361V30.2361ZM150.268 22.0255C150.087 21.9352 149.807 21.8895 149.429 21.8895C148.506 21.8895 147.787 22.2072 147.274 22.8424C146.759 23.4777 146.503 24.3468 146.503 25.4509V30.0099H143.213V18.8046H145.69C146.126 18.8046 146.48 19.1581 146.48 19.5943V20.6429C146.782 19.9924 147.213 19.4822 147.773 19.1113C148.332 18.7415 148.975 18.5555 149.702 18.5555C149.822 18.5555 149.94 18.5631 150.053 18.5783C150.166 18.5935 150.238 18.6088 150.268 18.624V22.0255ZM119 24.4132C119 23.5658 119.148 22.7826 119.443 22.0636C119.738 21.3445 120.15 20.7201 120.68 20.1904C121.209 19.6606 121.841 19.2484 122.576 18.9525C123.31 18.6577 124.116 18.5098 124.994 18.5098C125.478 18.5098 125.966 18.5663 126.458 18.6805C126.95 18.7937 127.4 18.9721 127.809 19.2147V22.3257C127.037 21.7807 126.227 21.5088 125.38 21.5088C124.94 21.5088 124.536 21.5806 124.165 21.7242C123.794 21.8678 123.472 22.069 123.2 22.3257C122.928 22.5835 122.716 22.8903 122.565 23.2449C122.413 23.6006 122.337 23.9911 122.337 24.4143C122.337 24.8385 122.412 25.2279 122.565 25.5836C122.716 25.9394 122.928 26.2461 123.2 26.5028C123.472 26.7606 123.794 26.9608 124.165 27.1044C124.536 27.248 124.94 27.3198 125.38 27.3198C125.818 27.3198 126.25 27.2403 126.674 27.0815C127.097 26.9227 127.484 26.7149 127.832 26.4571V29.59C127.378 29.8478 126.905 30.0327 126.412 30.1458C125.921 30.259 125.432 30.3166 124.948 30.3166C124.085 30.3166 123.29 30.173 122.564 29.8848C121.837 29.5965 121.208 29.1962 120.68 28.6817C120.15 28.1671 119.738 27.546 119.443 26.8194C119.148 26.0927 119 25.291 119 24.4132V24.4132Z" fill="white"/>
<path d="M141.656 24.4132C141.656 25.2453 141.5 26.022 141.19 26.74C140.88 27.459 140.452 28.0834 139.907 28.6131C139.362 29.1429 138.718 29.5595 137.978 29.8619C137.84 29.9185 137.699 29.9674 137.557 30.0131L136.806 26.9978C137.091 26.8553 137.344 26.6769 137.557 26.4561C137.807 26.1993 138.007 25.8958 138.158 25.5478C138.309 25.1997 138.386 24.8211 138.386 24.4121C138.386 24.0031 138.309 23.6256 138.158 23.2765C138.007 22.9284 137.806 22.626 137.557 22.3681C137.307 22.1114 137.008 21.9069 136.66 21.7546C136.312 21.6034 135.949 21.5273 135.57 21.5273C135.177 21.5273 134.81 21.6034 134.47 21.7546C134.129 21.9058 133.834 22.1103 133.584 22.3681C133.334 22.626 133.134 22.9284 132.983 23.2765C132.831 23.6245 132.755 24.0031 132.755 24.4121C132.755 24.8211 132.83 25.1997 132.983 25.5478C133.134 25.8958 133.335 26.1982 133.584 26.4561C133.8 26.678 134.051 26.8585 134.334 27.001L133.584 30.0131C133.442 29.9674 133.301 29.9185 133.163 29.8619C132.421 29.5595 131.778 29.1429 131.233 28.6131C130.688 28.0834 130.261 27.459 129.951 26.74C129.641 26.0209 129.485 25.2453 129.485 24.4132C129.485 23.581 129.64 22.8054 129.951 22.0864C130.261 21.3674 130.688 20.743 131.233 20.2132C131.778 19.6835 132.421 19.268 133.163 18.9645C133.905 18.661 134.708 18.5098 135.57 18.5098C136.433 18.5098 137.236 18.661 137.977 18.9634C138.718 19.2669 139.361 19.6824 139.906 20.2122C140.451 20.7419 140.879 21.3663 141.189 22.0853C141.5 22.8044 141.656 23.581 141.656 24.4132V24.4132Z" fill="white"/>
</g>
<defs>
<clipPath id="clip0">
<rect width="95.3" height="15.65" fill="white" transform="translate(119 18.5098)"/>
</clipPath>
</defs>
</svg>
