<svg width="236" height="48" viewBox="0 0 236 48" fill="none" xmlns="http://www.w3.org/2000/svg">
<rect width="236" height="48" rx="8" fill="#D5D5D5"/>
<path d="M13.9581 17.256H18.8901C19.5381 17.256 20.1501 17.322 20.7261 17.454C21.3141 17.574 21.8241 17.784 22.2561 18.084C22.7001 18.372 23.0481 18.768 23.3001 19.272C23.5641 19.764 23.6961 20.382 23.6961 21.126C23.6961 22.026 23.4621 22.794 22.9941 23.43C22.5261 24.054 21.8421 24.45 20.9421 24.618L24.1821 30H20.8161L18.1521 24.906H16.7661V30H13.9581V17.256ZM16.7661 22.53H18.4221C18.6741 22.53 18.9381 22.524 19.2141 22.512C19.5021 22.488 19.7601 22.434 19.9881 22.35C20.2161 22.254 20.4021 22.11 20.5461 21.918C20.7021 21.726 20.7801 21.456 20.7801 21.108C20.7801 20.784 20.7141 20.526 20.5821 20.334C20.4501 20.142 20.2821 19.998 20.0781 19.902C19.8741 19.794 19.6401 19.722 19.3761 19.686C19.1121 19.65 18.8541 19.632 18.6021 19.632H16.7661V22.53ZM33.568 28.488C33.136 29.04 32.59 29.466 31.93 29.766C31.27 30.066 30.586 30.216 29.878 30.216C29.206 30.216 28.57 30.108 27.97 29.892C27.382 29.676 26.866 29.37 26.422 28.974C25.99 28.566 25.648 28.08 25.396 27.516C25.144 26.952 25.018 26.322 25.018 25.626C25.018 24.93 25.144 24.3 25.396 23.736C25.648 23.172 25.99 22.692 26.422 22.296C26.866 21.888 27.382 21.576 27.97 21.36C28.57 21.144 29.206 21.036 29.878 21.036C30.502 21.036 31.066 21.144 31.57 21.36C32.086 21.576 32.518 21.888 32.866 22.296C33.226 22.692 33.502 23.172 33.694 23.736C33.886 24.3 33.982 24.93 33.982 25.626V26.472H27.718C27.826 26.988 28.06 27.402 28.42 27.714C28.78 28.014 29.224 28.164 29.752 28.164C30.196 28.164 30.568 28.068 30.868 27.876C31.18 27.672 31.45 27.414 31.678 27.102L33.568 28.488ZM31.282 24.636C31.294 24.18 31.144 23.79 30.832 23.466C30.52 23.142 30.118 22.98 29.626 22.98C29.326 22.98 29.062 23.028 28.834 23.124C28.606 23.22 28.408 23.346 28.24 23.502C28.084 23.646 27.958 23.82 27.862 24.024C27.778 24.216 27.73 24.42 27.718 24.636H31.282ZM41.5819 23.412H39.2059V26.328C39.2059 26.568 39.2179 26.79 39.2419 26.994C39.2659 27.186 39.3199 27.354 39.4039 27.498C39.4879 27.642 39.6139 27.756 39.7819 27.84C39.9619 27.912 40.1959 27.948 40.4839 27.948C40.6279 27.948 40.8139 27.936 41.0419 27.912C41.2819 27.876 41.4619 27.804 41.5819 27.696V29.946C41.2819 30.054 40.9699 30.126 40.6459 30.162C40.3219 30.198 40.0039 30.216 39.6919 30.216C39.2359 30.216 38.8159 30.168 38.4319 30.072C38.0479 29.976 37.7119 29.826 37.4239 29.622C37.1359 29.406 36.9079 29.13 36.7399 28.794C36.5839 28.458 36.5059 28.05 36.5059 27.57V23.412H34.7779V21.252H36.5059V18.66H39.2059V21.252H41.5819V23.412ZM42.954 21.252H45.654V22.656H45.69C45.978 22.116 46.32 21.714 46.716 21.45C47.112 21.174 47.61 21.036 48.21 21.036C48.366 21.036 48.522 21.042 48.678 21.054C48.834 21.066 48.978 21.09 49.11 21.126V23.592C48.918 23.532 48.726 23.49 48.534 23.466C48.354 23.43 48.162 23.412 47.958 23.412C47.442 23.412 47.034 23.484 46.734 23.628C46.434 23.772 46.2 23.976 46.032 24.24C45.876 24.492 45.774 24.798 45.726 25.158C45.678 25.518 45.654 25.914 45.654 26.346V30H42.954V21.252ZM50.3201 21.252H53.0201V30H50.3201V21.252ZM50.1041 18.498C50.1041 18.066 50.2541 17.7 50.5541 17.4C50.8661 17.088 51.2381 16.932 51.6701 16.932C52.1021 16.932 52.4681 17.088 52.7681 17.4C53.0801 17.7 53.2361 18.066 53.2361 18.498C53.2361 18.93 53.0801 19.302 52.7681 19.614C52.4681 19.914 52.1021 20.064 51.6701 20.064C51.2381 20.064 50.8661 19.914 50.5541 19.614C50.2541 19.302 50.1041 18.93 50.1041 18.498ZM63.2399 28.488C62.8079 29.04 62.2619 29.466 61.6019 29.766C60.9419 30.066 60.2579 30.216 59.5499 30.216C58.8779 30.216 58.2419 30.108 57.6419 29.892C57.0539 29.676 56.5379 29.37 56.0939 28.974C55.6619 28.566 55.3199 28.08 55.0679 27.516C54.8159 26.952 54.6899 26.322 54.6899 25.626C54.6899 24.93 54.8159 24.3 55.0679 23.736C55.3199 23.172 55.6619 22.692 56.0939 22.296C56.5379 21.888 57.0539 21.576 57.6419 21.36C58.2419 21.144 58.8779 21.036 59.5499 21.036C60.1739 21.036 60.7379 21.144 61.2419 21.36C61.7579 21.576 62.1899 21.888 62.5379 22.296C62.8979 22.692 63.1739 23.172 63.3659 23.736C63.5579 24.3 63.6539 24.93 63.6539 25.626V26.472H57.3899C57.4979 26.988 57.7319 27.402 58.0919 27.714C58.4519 28.014 58.8959 28.164 59.4239 28.164C59.8679 28.164 60.2399 28.068 60.5399 27.876C60.8519 27.672 61.1219 27.414 61.3499 27.102L63.2399 28.488ZM60.9539 24.636C60.9659 24.18 60.8159 23.79 60.5039 23.466C60.1919 23.142 59.7899 22.98 59.2979 22.98C58.9979 22.98 58.7339 23.028 58.5059 23.124C58.2779 23.22 58.0799 23.346 57.9119 23.502C57.7559 23.646 57.6299 23.82 57.5339 24.024C57.4499 24.216 57.4019 24.42 57.3899 24.636H60.9539ZM64.3778 21.252H67.2938L69.5078 27.192H69.5438L71.5958 21.252H74.3138L70.8578 30H67.9958L64.3778 21.252ZM83.5778 28.488C83.1458 29.04 82.5998 29.466 81.9398 29.766C81.2798 30.066 80.5958 30.216 79.8878 30.216C79.2158 30.216 78.5798 30.108 77.9798 29.892C77.3918 29.676 76.8758 29.37 76.4318 28.974C75.9998 28.566 75.6578 28.08 75.4058 27.516C75.1538 26.952 75.0278 26.322 75.0278 25.626C75.0278 24.93 75.1538 24.3 75.4058 23.736C75.6578 23.172 75.9998 22.692 76.4318 22.296C76.8758 21.888 77.3918 21.576 77.9798 21.36C78.5798 21.144 79.2158 21.036 79.8878 21.036C80.5118 21.036 81.0758 21.144 81.5798 21.36C82.0958 21.576 82.5278 21.888 82.8758 22.296C83.2358 22.692 83.5118 23.172 83.7038 23.736C83.8958 24.3 83.9918 24.93 83.9918 25.626V26.472H77.7278C77.8358 26.988 78.0698 27.402 78.4298 27.714C78.7898 28.014 79.2338 28.164 79.7618 28.164C80.2058 28.164 80.5778 28.068 80.8778 27.876C81.1898 27.672 81.4598 27.414 81.6878 27.102L83.5778 28.488ZM81.2918 24.636C81.3038 24.18 81.1538 23.79 80.8418 23.466C80.5298 23.142 80.1278 22.98 79.6357 22.98C79.3358 22.98 79.0718 23.028 78.8438 23.124C78.6158 23.22 78.4178 23.346 78.2498 23.502C78.0938 23.646 77.9678 23.82 77.8718 24.024C77.7878 24.216 77.7398 24.42 77.7278 24.636H81.2918ZM91.4099 17.256H100.068V19.848H94.2179V22.224H99.7439V24.816H94.2179V27.408H100.392V30H91.4099V17.256ZM102.298 21.252H104.89V22.44H104.926C105.01 22.272 105.13 22.104 105.286 21.936C105.442 21.768 105.628 21.618 105.844 21.486C106.06 21.354 106.306 21.246 106.582 21.162C106.858 21.078 107.158 21.036 107.482 21.036C108.166 21.036 108.718 21.144 109.138 21.36C109.558 21.564 109.882 21.852 110.11 22.224C110.35 22.596 110.512 23.034 110.596 23.538C110.68 24.042 110.722 24.588 110.722 25.176V30H108.022V25.716C108.022 25.464 108.01 25.206 107.986 24.942C107.974 24.666 107.92 24.414 107.824 24.186C107.74 23.958 107.602 23.772 107.41 23.628C107.23 23.484 106.966 23.412 106.618 23.412C106.27 23.412 105.988 23.478 105.772 23.61C105.556 23.73 105.388 23.898 105.268 24.114C105.16 24.318 105.088 24.552 105.052 24.816C105.016 25.08 104.998 25.356 104.998 25.644V30H102.298V21.252ZM118.592 23.412H116.216V26.328C116.216 26.568 116.228 26.79 116.252 26.994C116.276 27.186 116.33 27.354 116.414 27.498C116.498 27.642 116.624 27.756 116.792 27.84C116.972 27.912 117.206 27.948 117.494 27.948C117.638 27.948 117.824 27.936 118.052 27.912C118.292 27.876 118.472 27.804 118.592 27.696V29.946C118.292 30.054 117.98 30.126 117.656 30.162C117.332 30.198 117.014 30.216 116.702 30.216C116.246 30.216 115.826 30.168 115.442 30.072C115.058 29.976 114.722 29.826 114.434 29.622C114.146 29.406 113.918 29.13 113.75 28.794C113.594 28.458 113.516 28.05 113.516 27.57V23.412H111.788V21.252H113.516V18.66H116.216V21.252H118.592V23.412ZM128.244 28.488C127.812 29.04 127.266 29.466 126.606 29.766C125.946 30.066 125.262 30.216 124.554 30.216C123.882 30.216 123.246 30.108 122.646 29.892C122.058 29.676 121.542 29.37 121.098 28.974C120.666 28.566 120.324 28.08 120.072 27.516C119.82 26.952 119.694 26.322 119.694 25.626C119.694 24.93 119.82 24.3 120.072 23.736C120.324 23.172 120.666 22.692 121.098 22.296C121.542 21.888 122.058 21.576 122.646 21.36C123.246 21.144 123.882 21.036 124.554 21.036C125.178 21.036 125.742 21.144 126.246 21.36C126.762 21.576 127.194 21.888 127.542 22.296C127.902 22.692 128.178 23.172 128.37 23.736C128.562 24.3 128.658 24.93 128.658 25.626V26.472H122.394C122.502 26.988 122.736 27.402 123.096 27.714C123.456 28.014 123.9 28.164 124.428 28.164C124.872 28.164 125.244 28.068 125.544 27.876C125.856 27.672 126.126 27.414 126.354 27.102L128.244 28.488ZM125.958 24.636C125.97 24.18 125.82 23.79 125.508 23.466C125.196 23.142 124.794 22.98 124.302 22.98C124.002 22.98 123.738 23.028 123.51 23.124C123.282 23.22 123.084 23.346 122.916 23.502C122.76 23.646 122.634 23.82 122.538 24.024C122.454 24.216 122.406 24.42 122.394 24.636H125.958ZM130.3 21.252H133V22.656H133.036C133.324 22.116 133.666 21.714 134.062 21.45C134.458 21.174 134.956 21.036 135.556 21.036C135.712 21.036 135.868 21.042 136.024 21.054C136.18 21.066 136.324 21.09 136.456 21.126V23.592C136.264 23.532 136.072 23.49 135.88 23.466C135.7 23.43 135.508 23.412 135.304 23.412C134.788 23.412 134.38 23.484 134.08 23.628C133.78 23.772 133.546 23.976 133.378 24.24C133.222 24.492 133.12 24.798 133.072 25.158C133.024 25.518 133 25.914 133 26.346V30H130.3V21.252ZM137.882 21.252H140.366V22.404H140.402C140.51 22.248 140.648 22.092 140.816 21.936C140.996 21.768 141.2 21.618 141.428 21.486C141.668 21.354 141.926 21.246 142.202 21.162C142.478 21.078 142.772 21.036 143.084 21.036C143.732 21.036 144.32 21.15 144.848 21.378C145.376 21.594 145.826 21.906 146.198 22.314C146.582 22.71 146.876 23.184 147.08 23.736C147.284 24.288 147.386 24.894 147.386 25.554C147.386 26.166 147.29 26.754 147.098 27.318C146.918 27.87 146.654 28.362 146.306 28.794C145.97 29.226 145.556 29.574 145.064 29.838C144.572 30.09 144.014 30.216 143.39 30.216C142.826 30.216 142.298 30.132 141.806 29.964C141.326 29.784 140.93 29.484 140.618 29.064H140.582V34.104H137.882V21.252ZM140.366 25.626C140.366 26.286 140.552 26.82 140.924 27.228C141.308 27.636 141.842 27.84 142.526 27.84C143.21 27.84 143.738 27.636 144.11 27.228C144.494 26.82 144.686 26.286 144.686 25.626C144.686 24.966 144.494 24.432 144.11 24.024C143.738 23.616 143.21 23.412 142.526 23.412C141.842 23.412 141.308 23.616 140.924 24.024C140.552 24.432 140.366 24.966 140.366 25.626ZM148.968 21.252H151.668V22.656H151.704C151.992 22.116 152.334 21.714 152.73 21.45C153.126 21.174 153.624 21.036 154.224 21.036C154.38 21.036 154.536 21.042 154.692 21.054C154.848 21.066 154.992 21.09 155.124 21.126V23.592C154.932 23.532 154.74 23.49 154.548 23.466C154.368 23.43 154.176 23.412 153.972 23.412C153.456 23.412 153.048 23.484 152.748 23.628C152.448 23.772 152.214 23.976 152.046 24.24C151.89 24.492 151.788 24.798 151.74 25.158C151.692 25.518 151.668 25.914 151.668 26.346V30H148.968V21.252ZM156.334 21.252H159.034V30H156.334V21.252ZM156.118 18.498C156.118 18.066 156.268 17.7 156.568 17.4C156.88 17.088 157.252 16.932 157.684 16.932C158.116 16.932 158.482 17.088 158.782 17.4C159.094 17.7 159.25 18.066 159.25 18.498C159.25 18.93 159.094 19.302 158.782 19.614C158.482 19.914 158.116 20.064 157.684 20.064C157.252 20.064 156.88 19.914 156.568 19.614C156.268 19.302 156.118 18.93 156.118 18.498ZM165.924 23.826C165.528 23.334 165.006 23.088 164.358 23.088C164.13 23.088 163.908 23.142 163.692 23.25C163.476 23.358 163.368 23.544 163.368 23.808C163.368 24.024 163.476 24.186 163.692 24.294C163.92 24.39 164.202 24.48 164.538 24.564C164.886 24.636 165.252 24.72 165.636 24.816C166.032 24.9 166.398 25.038 166.734 25.23C167.082 25.422 167.364 25.686 167.58 26.022C167.808 26.346 167.922 26.784 167.922 27.336C167.922 27.9 167.796 28.368 167.544 28.74C167.304 29.1 166.992 29.394 166.608 29.622C166.224 29.838 165.792 29.988 165.312 30.072C164.832 30.168 164.358 30.216 163.89 30.216C163.278 30.216 162.66 30.132 162.036 29.964C161.412 29.784 160.884 29.472 160.452 29.028L162.09 27.21C162.342 27.522 162.618 27.762 162.918 27.93C163.23 28.086 163.59 28.164 163.998 28.164C164.31 28.164 164.592 28.122 164.844 28.038C165.096 27.942 165.222 27.774 165.222 27.534C165.222 27.306 165.108 27.138 164.88 27.03C164.664 26.91 164.382 26.814 164.034 26.742C163.698 26.658 163.332 26.574 162.936 26.49C162.552 26.394 162.186 26.256 161.838 26.076C161.502 25.896 161.22 25.644 160.992 25.32C160.776 24.984 160.668 24.54 160.668 23.988C160.668 23.472 160.77 23.028 160.974 22.656C161.19 22.284 161.466 21.978 161.802 21.738C162.15 21.498 162.546 21.324 162.99 21.216C163.434 21.096 163.884 21.036 164.34 21.036C164.916 21.036 165.498 21.12 166.086 21.288C166.674 21.456 167.172 21.756 167.58 22.188L165.924 23.826ZM177.586 28.488C177.154 29.04 176.608 29.466 175.948 29.766C175.288 30.066 174.604 30.216 173.896 30.216C173.224 30.216 172.588 30.108 171.988 29.892C171.4 29.676 170.884 29.37 170.44 28.974C170.008 28.566 169.666 28.08 169.414 27.516C169.162 26.952 169.036 26.322 169.036 25.626C169.036 24.93 169.162 24.3 169.414 23.736C169.666 23.172 170.008 22.692 170.44 22.296C170.884 21.888 171.4 21.576 171.988 21.36C172.588 21.144 173.224 21.036 173.896 21.036C174.52 21.036 175.084 21.144 175.588 21.36C176.104 21.576 176.536 21.888 176.884 22.296C177.244 22.692 177.52 23.172 177.712 23.736C177.904 24.3 178 24.93 178 25.626V26.472H171.736C171.844 26.988 172.078 27.402 172.438 27.714C172.798 28.014 173.242 28.164 173.77 28.164C174.214 28.164 174.586 28.068 174.886 27.876C175.198 27.672 175.468 27.414 175.696 27.102L177.586 28.488ZM175.3 24.636C175.312 24.18 175.162 23.79 174.85 23.466C174.538 23.142 174.136 22.98 173.644 22.98C173.344 22.98 173.08 23.028 172.852 23.124C172.624 23.22 172.426 23.346 172.258 23.502C172.102 23.646 171.976 23.82 171.88 24.024C171.796 24.216 171.748 24.42 171.736 24.636H175.3ZM185.31 17.256H189.522C190.542 17.256 191.508 17.37 192.42 17.598C193.344 17.826 194.148 18.198 194.832 18.714C195.516 19.218 196.056 19.878 196.452 20.694C196.86 21.51 197.064 22.5 197.064 23.664C197.064 24.696 196.866 25.608 196.47 26.4C196.086 27.18 195.564 27.84 194.904 28.38C194.244 28.908 193.482 29.31 192.618 29.586C191.754 29.862 190.848 30 189.9 30H185.31V17.256ZM188.118 27.408H189.576C190.224 27.408 190.824 27.342 191.376 27.21C191.94 27.078 192.426 26.862 192.834 26.562C193.242 26.25 193.56 25.848 193.788 25.356C194.028 24.852 194.148 24.24 194.148 23.52C194.148 22.896 194.028 22.356 193.788 21.9C193.56 21.432 193.248 21.048 192.852 20.748C192.456 20.448 191.988 20.226 191.448 20.082C190.92 19.926 190.362 19.848 189.774 19.848H188.118V27.408ZM204.116 28.902H204.08C203.78 29.37 203.378 29.706 202.874 29.91C202.382 30.114 201.86 30.216 201.308 30.216C200.9 30.216 200.504 30.156 200.12 30.036C199.748 29.928 199.418 29.76 199.13 29.532C198.842 29.304 198.614 29.022 198.446 28.686C198.278 28.35 198.194 27.96 198.194 27.516C198.194 27.012 198.284 26.586 198.464 26.238C198.656 25.89 198.908 25.602 199.22 25.374C199.544 25.146 199.91 24.972 200.318 24.852C200.726 24.72 201.146 24.624 201.578 24.564C202.022 24.504 202.46 24.468 202.892 24.456C203.336 24.444 203.744 24.438 204.116 24.438C204.116 23.958 203.942 23.58 203.594 23.304C203.258 23.016 202.856 22.872 202.388 22.872C201.944 22.872 201.536 22.968 201.164 23.16C200.804 23.34 200.48 23.592 200.192 23.916L198.752 22.44C199.256 21.972 199.844 21.624 200.516 21.396C201.188 21.156 201.884 21.036 202.604 21.036C203.396 21.036 204.044 21.138 204.548 21.342C205.064 21.534 205.472 21.822 205.772 22.206C206.084 22.59 206.3 23.064 206.42 23.628C206.54 24.18 206.6 24.822 206.6 25.554V30H204.116V28.902ZM203.45 26.166C203.246 26.166 202.988 26.178 202.676 26.202C202.376 26.214 202.082 26.262 201.794 26.346C201.518 26.43 201.278 26.556 201.074 26.724C200.882 26.892 200.786 27.126 200.786 27.426C200.786 27.75 200.924 27.99 201.2 28.146C201.476 28.302 201.764 28.38 202.064 28.38C202.328 28.38 202.58 28.344 202.82 28.272C203.072 28.2 203.294 28.098 203.486 27.966C203.678 27.834 203.828 27.666 203.936 27.462C204.056 27.258 204.116 27.018 204.116 26.742V26.166H203.45ZM214.252 23.412H211.876V26.328C211.876 26.568 211.888 26.79 211.912 26.994C211.936 27.186 211.99 27.354 212.074 27.498C212.158 27.642 212.284 27.756 212.452 27.84C212.632 27.912 212.866 27.948 213.154 27.948C213.298 27.948 213.484 27.936 213.712 27.912C213.952 27.876 214.132 27.804 214.252 27.696V29.946C213.952 30.054 213.64 30.126 213.316 30.162C212.992 30.198 212.674 30.216 212.362 30.216C211.906 30.216 211.486 30.168 211.102 30.072C210.718 29.976 210.382 29.826 210.094 29.622C209.806 29.406 209.578 29.13 209.41 28.794C209.254 28.458 209.176 28.05 209.176 27.57V23.412H207.448V21.252H209.176V18.66H211.876V21.252H214.252V23.412ZM221.114 28.902H221.078C220.778 29.37 220.376 29.706 219.872 29.91C219.38 30.114 218.858 30.216 218.306 30.216C217.898 30.216 217.502 30.156 217.118 30.036C216.746 29.928 216.416 29.76 216.128 29.532C215.84 29.304 215.612 29.022 215.444 28.686C215.276 28.35 215.192 27.96 215.192 27.516C215.192 27.012 215.282 26.586 215.462 26.238C215.654 25.89 215.906 25.602 216.218 25.374C216.542 25.146 216.908 24.972 217.316 24.852C217.724 24.72 218.144 24.624 218.576 24.564C219.02 24.504 219.458 24.468 219.89 24.456C220.334 24.444 220.742 24.438 221.114 24.438C221.114 23.958 220.94 23.58 220.592 23.304C220.256 23.016 219.854 22.872 219.386 22.872C218.942 22.872 218.534 22.968 218.162 23.16C217.802 23.34 217.478 23.592 217.19 23.916L215.75 22.44C216.254 21.972 216.842 21.624 217.514 21.396C218.186 21.156 218.882 21.036 219.602 21.036C220.394 21.036 221.042 21.138 221.546 21.342C222.062 21.534 222.47 21.822 222.77 22.206C223.082 22.59 223.298 23.064 223.418 23.628C223.538 24.18 223.598 24.822 223.598 25.554V30H221.114V28.902ZM220.448 26.166C220.244 26.166 219.986 26.178 219.674 26.202C219.374 26.214 219.08 26.262 218.792 26.346C218.516 26.43 218.276 26.556 218.072 26.724C217.88 26.892 217.784 27.126 217.784 27.426C217.784 27.75 217.922 27.99 218.198 28.146C218.474 28.302 218.762 28.38 219.062 28.38C219.326 28.38 219.578 28.344 219.818 28.272C220.07 28.2 220.292 28.098 220.484 27.966C220.676 27.834 220.826 27.666 220.934 27.462C221.054 27.258 221.114 27.018 221.114 26.742V26.166H220.448Z" fill="white"/>
</svg>
