<svg width="65" height="60" viewBox="0 0 65 60" fill="none" xmlns="http://www.w3.org/2000/svg">
<rect x="1" y="1" width="63" height="58" rx="7" fill="white" stroke="#D5D5D5" stroke-width="2"/>
<path d="M14.3391 24.088H18.1751C18.6791 24.088 19.1551 24.1393 19.6031 24.242C20.0604 24.3353 20.4571 24.4987 20.7931 24.732C21.1384 24.956 21.4091 25.264 21.6051 25.656C21.8104 26.0387 21.9131 26.5193 21.9131 27.098C21.9131 27.798 21.7311 28.3953 21.3671 28.89C21.0031 29.3753 20.4711 29.6833 19.7711 29.814L22.2911 34H19.6731L17.6011 30.038H16.5231V34H14.3391V24.088ZM16.5231 28.19H17.8111C18.0071 28.19 18.2124 28.1853 18.4271 28.176C18.6511 28.1573 18.8517 28.1153 19.0291 28.05C19.2064 27.9753 19.3511 27.8633 19.4631 27.714C19.5844 27.5647 19.6451 27.3547 19.6451 27.084C19.6451 26.832 19.5937 26.6313 19.4911 26.482C19.3884 26.3327 19.2577 26.2207 19.0991 26.146C18.9404 26.062 18.7584 26.006 18.5531 25.978C18.3477 25.95 18.1471 25.936 17.9511 25.936H16.5231V28.19ZM29.5912 32.824C29.2552 33.2533 28.8305 33.5847 28.3172 33.818C27.8038 34.0513 27.2718 34.168 26.7212 34.168C26.1985 34.168 25.7038 34.084 25.2372 33.916C24.7798 33.748 24.3785 33.51 24.0332 33.202C23.6972 32.8847 23.4312 32.5067 23.2352 32.068C23.0392 31.6293 22.9412 31.1393 22.9412 30.598C22.9412 30.0567 23.0392 29.5667 23.2352 29.128C23.4312 28.6893 23.6972 28.316 24.0332 28.008C24.3785 27.6907 24.7798 27.448 25.2372 27.28C25.7038 27.112 26.1985 27.028 26.7212 27.028C27.2065 27.028 27.6452 27.112 28.0372 27.28C28.4385 27.448 28.7745 27.6907 29.0452 28.008C29.3252 28.316 29.5398 28.6893 29.6892 29.128C29.8385 29.5667 29.9132 30.0567 29.9132 30.598V31.256H25.0412C25.1252 31.6573 25.3072 31.9793 25.5872 32.222C25.8672 32.4553 26.2125 32.572 26.6232 32.572C26.9685 32.572 27.2578 32.4973 27.4912 32.348C27.7338 32.1893 27.9438 31.9887 28.1212 31.746L29.5912 32.824ZM27.8132 29.828C27.8225 29.4733 27.7058 29.17 27.4632 28.918C27.2205 28.666 26.9078 28.54 26.5252 28.54C26.2918 28.54 26.0865 28.5773 25.9092 28.652C25.7318 28.7267 25.5778 28.8247 25.4472 28.946C25.3258 29.058 25.2278 29.1933 25.1532 29.352C25.0878 29.5013 25.0505 29.66 25.0412 29.828H27.8132ZM35.0402 29.198C34.7322 28.8153 34.3262 28.624 33.8222 28.624C33.6449 28.624 33.4722 28.666 33.3042 28.75C33.1362 28.834 33.0522 28.9787 33.0522 29.184C33.0522 29.352 33.1362 29.478 33.3042 29.562C33.4816 29.6367 33.7009 29.7067 33.9622 29.772C34.2329 29.828 34.5176 29.8933 34.8162 29.968C35.1242 30.0333 35.4089 30.1407 35.6702 30.29C35.9409 30.4393 36.1602 30.6447 36.3282 30.906C36.5056 31.158 36.5942 31.4987 36.5942 31.928C36.5942 32.3667 36.4962 32.7307 36.3002 33.02C36.1136 33.3 35.8709 33.5287 35.5722 33.706C35.2736 33.874 34.9376 33.9907 34.5642 34.056C34.1909 34.1307 33.8222 34.168 33.4582 34.168C32.9822 34.168 32.5016 34.1027 32.0162 33.972C31.5309 33.832 31.1202 33.5893 30.7842 33.244L32.0582 31.83C32.2542 32.0727 32.4689 32.2593 32.7022 32.39C32.9449 32.5113 33.2249 32.572 33.5422 32.572C33.7849 32.572 34.0042 32.5393 34.2002 32.474C34.3962 32.3993 34.4942 32.2687 34.4942 32.082C34.4942 31.9047 34.4056 31.774 34.2282 31.69C34.0602 31.5967 33.8409 31.522 33.5702 31.466C33.3089 31.4007 33.0242 31.3353 32.7162 31.27C32.4176 31.1953 32.1329 31.088 31.8622 30.948C31.6009 30.808 31.3816 30.612 31.2042 30.36C31.0362 30.0987 30.9522 29.7533 30.9522 29.324C30.9522 28.9227 31.0316 28.5773 31.1902 28.288C31.3582 27.9987 31.5729 27.7607 31.8342 27.574C32.1049 27.3873 32.4129 27.252 32.7582 27.168C33.1036 27.0747 33.4536 27.028 33.8082 27.028C34.2562 27.028 34.7089 27.0933 35.1662 27.224C35.6236 27.3547 36.0109 27.588 36.3282 27.924L35.0402 29.198ZM44.1107 32.824C43.7747 33.2533 43.35 33.5847 42.8367 33.818C42.3234 34.0513 41.7914 34.168 41.2407 34.168C40.718 34.168 40.2234 34.084 39.7567 33.916C39.2994 33.748 38.898 33.51 38.5527 33.202C38.2167 32.8847 37.9507 32.5067 37.7547 32.068C37.5587 31.6293 37.4607 31.1393 37.4607 30.598C37.4607 30.0567 37.5587 29.5667 37.7547 29.128C37.9507 28.6893 38.2167 28.316 38.5527 28.008C38.898 27.6907 39.2994 27.448 39.7567 27.28C40.2234 27.112 40.718 27.028 41.2407 27.028C41.726 27.028 42.1647 27.112 42.5567 27.28C42.958 27.448 43.294 27.6907 43.5647 28.008C43.8447 28.316 44.0594 28.6893 44.2087 29.128C44.358 29.5667 44.4327 30.0567 44.4327 30.598V31.256H39.5607C39.6447 31.6573 39.8267 31.9793 40.1067 32.222C40.3867 32.4553 40.732 32.572 41.1427 32.572C41.488 32.572 41.7774 32.4973 42.0107 32.348C42.2534 32.1893 42.4634 31.9887 42.6407 31.746L44.1107 32.824ZM42.3327 29.828C42.342 29.4733 42.2254 29.17 41.9827 28.918C41.74 28.666 41.4274 28.54 41.0447 28.54C40.8114 28.54 40.606 28.5773 40.4287 28.652C40.2514 28.7267 40.0974 28.8247 39.9667 28.946C39.8454 29.058 39.7474 29.1933 39.6727 29.352C39.6074 29.5013 39.57 29.66 39.5607 29.828H42.3327ZM50.3438 28.876H48.4958V31.144C48.4958 31.3307 48.5051 31.5033 48.5238 31.662C48.5424 31.8113 48.5844 31.942 48.6498 32.054C48.7151 32.166 48.8131 32.2547 48.9438 32.32C49.0838 32.376 49.2658 32.404 49.4898 32.404C49.6018 32.404 49.7464 32.3947 49.9238 32.376C50.1104 32.348 50.2504 32.292 50.3438 32.208V33.958C50.1104 34.042 49.8678 34.098 49.6158 34.126C49.3638 34.154 49.1164 34.168 48.8738 34.168C48.5191 34.168 48.1924 34.1307 47.8938 34.056C47.5951 33.9813 47.3338 33.8647 47.1098 33.706C46.8858 33.538 46.7084 33.3233 46.5778 33.062C46.4564 32.8007 46.3958 32.4833 46.3958 32.11V28.876H45.0518V27.196H46.3958V25.18H48.4958V27.196H50.3438V28.876Z" fill="#D5D5D5"/>
</svg>
