<svg width="65" height="48" viewBox="0 0 65 48" fill="none" xmlns="http://www.w3.org/2000/svg">
<rect x="1" y="1" width="63" height="46" rx="7" fill="white" stroke="#D5D5D5" stroke-width="2"/>
<path d="M22.7498 20.664C22.5351 20.4027 22.2691 20.202 21.9518 20.062C21.6438 19.922 21.2844 19.852 20.8738 19.852C20.4631 19.852 20.0804 19.9313 19.7258 20.09C19.3804 20.2487 19.0771 20.4727 18.8158 20.762C18.5638 21.042 18.3631 21.378 18.2138 21.77C18.0738 22.162 18.0038 22.5867 18.0038 23.044C18.0038 23.5107 18.0738 23.94 18.2138 24.332C18.3631 24.7147 18.5638 25.0507 18.8158 25.34C19.0678 25.62 19.3618 25.8393 19.6978 25.998C20.0431 26.1567 20.4118 26.236 20.8038 26.236C21.2518 26.236 21.6484 26.1427 21.9938 25.956C22.3391 25.7693 22.6238 25.508 22.8478 25.172L24.6678 26.53C24.2478 27.118 23.7158 27.552 23.0718 27.832C22.4278 28.112 21.7651 28.252 21.0838 28.252C20.3091 28.252 19.5951 28.1307 18.9418 27.888C18.2884 27.6453 17.7238 27.3 17.2478 26.852C16.7718 26.3947 16.3984 25.844 16.1278 25.2C15.8664 24.556 15.7358 23.8373 15.7358 23.044C15.7358 22.2507 15.8664 21.532 16.1278 20.888C16.3984 20.244 16.7718 19.698 17.2478 19.25C17.7238 18.7927 18.2884 18.4427 18.9418 18.2C19.5951 17.9573 20.3091 17.836 21.0838 17.836C21.3638 17.836 21.6531 17.864 21.9518 17.92C22.2598 17.9667 22.5584 18.046 22.8478 18.158C23.1464 18.27 23.4311 18.4193 23.7018 18.606C23.9724 18.7927 24.2151 19.0213 24.4298 19.292L22.7498 20.664ZM25.6138 17.416H27.7138V28H25.6138V17.416ZM35.6625 26.824C35.3265 27.2533 34.9018 27.5847 34.3885 27.818C33.8751 28.0513 33.3431 28.168 32.7925 28.168C32.2698 28.168 31.7751 28.084 31.3085 27.916C30.8511 27.748 30.4498 27.51 30.1045 27.202C29.7685 26.8847 29.5025 26.5067 29.3065 26.068C29.1105 25.6293 29.0125 25.1393 29.0125 24.598C29.0125 24.0567 29.1105 23.5667 29.3065 23.128C29.5025 22.6893 29.7685 22.316 30.1045 22.008C30.4498 21.6907 30.8511 21.448 31.3085 21.28C31.7751 21.112 32.2698 21.028 32.7925 21.028C33.2778 21.028 33.7165 21.112 34.1085 21.28C34.5098 21.448 34.8458 21.6907 35.1165 22.008C35.3965 22.316 35.6111 22.6893 35.7605 23.128C35.9098 23.5667 35.9845 24.0567 35.9845 24.598V25.256H31.1125C31.1965 25.6573 31.3785 25.9793 31.6585 26.222C31.9385 26.4553 32.2838 26.572 32.6945 26.572C33.0398 26.572 33.3291 26.4973 33.5625 26.348C33.8051 26.1893 34.0151 25.9887 34.1925 25.746L35.6625 26.824ZM33.8845 23.828C33.8938 23.4733 33.7771 23.17 33.5345 22.918C33.2918 22.666 32.9791 22.54 32.5965 22.54C32.3631 22.54 32.1578 22.5773 31.9805 22.652C31.8031 22.7267 31.6491 22.8247 31.5185 22.946C31.3971 23.058 31.2991 23.1933 31.2245 23.352C31.1591 23.5013 31.1218 23.66 31.1125 23.828H33.8845ZM41.5315 27.146H41.5035C41.2702 27.51 40.9575 27.7713 40.5655 27.93C40.1829 28.0887 39.7769 28.168 39.3475 28.168C39.0302 28.168 38.7222 28.1213 38.4235 28.028C38.1342 27.944 37.8775 27.8133 37.6535 27.636C37.4295 27.4587 37.2522 27.2393 37.1215 26.978C36.9909 26.7167 36.9255 26.4133 36.9255 26.068C36.9255 25.676 36.9955 25.3447 37.1355 25.074C37.2849 24.8033 37.4809 24.5793 37.7235 24.402C37.9755 24.2247 38.2602 24.0893 38.5775 23.996C38.8949 23.8933 39.2215 23.8187 39.5575 23.772C39.9029 23.7253 40.2435 23.6973 40.5795 23.688C40.9249 23.6787 41.2422 23.674 41.5315 23.674C41.5315 23.3007 41.3962 23.0067 41.1255 22.792C40.8642 22.568 40.5515 22.456 40.1875 22.456C39.8422 22.456 39.5249 22.5307 39.2355 22.68C38.9555 22.82 38.7035 23.016 38.4795 23.268L37.3595 22.12C37.7515 21.756 38.2089 21.4853 38.7315 21.308C39.2542 21.1213 39.7955 21.028 40.3555 21.028C40.9715 21.028 41.4755 21.1073 41.8675 21.266C42.2689 21.4153 42.5862 21.6393 42.8195 21.938C43.0622 22.2367 43.2302 22.6053 43.3235 23.044C43.4169 23.4733 43.4635 23.9727 43.4635 24.542V28H41.5315V27.146ZM41.0135 25.018C40.8549 25.018 40.6542 25.0273 40.4115 25.046C40.1782 25.0553 39.9495 25.0927 39.7255 25.158C39.5109 25.2233 39.3242 25.3213 39.1655 25.452C39.0162 25.5827 38.9415 25.7647 38.9415 25.998C38.9415 26.25 39.0489 26.4367 39.2635 26.558C39.4782 26.6793 39.7022 26.74 39.9355 26.74C40.1409 26.74 40.3369 26.712 40.5235 26.656C40.7195 26.6 40.8922 26.5207 41.0415 26.418C41.1909 26.3153 41.3075 26.1847 41.3915 26.026C41.4849 25.8673 41.5315 25.6807 41.5315 25.466V25.018H41.0135ZM44.7811 21.196H46.8811V22.288H46.9091C47.1331 21.868 47.3991 21.5553 47.7071 21.35C48.0151 21.1353 48.4024 21.028 48.8691 21.028C48.9904 21.028 49.1117 21.0327 49.2331 21.042C49.3544 21.0513 49.4664 21.07 49.5691 21.098V23.016C49.4197 22.9693 49.2704 22.9367 49.1211 22.918C48.9811 22.89 48.8317 22.876 48.6731 22.876C48.2717 22.876 47.9544 22.932 47.7211 23.044C47.4877 23.156 47.3057 23.3147 47.1751 23.52C47.0537 23.716 46.9744 23.954 46.9371 24.234C46.8997 24.514 46.8811 24.822 46.8811 25.158V28H44.7811V21.196Z" fill="#D5D5D5"/>
</svg>
